<svg version="1.1" id="Layer_1" xmlns="http://www.w3.org/2000/svg" xmlns:xlink="http://www.w3.org/1999/xlink" x="0px" y="0px"
	 width="100%" viewBox="0 0 1024 1024" enable-background="new 0 0 1024 1024" xml:space="preserve">
<path fill="#00FF00" opacity="1.000000" stroke="none" 
	d="
M535.107117,565.379395 
	C516.143127,571.934875 498.585815,570.064026 481.620605,559.853271 
	C444.381561,537.440552 406.936249,515.370911 369.615723,493.093262 
	C353.762695,483.630127 343.693665,470.003235 340.230988,451.667480 
	C339.727936,449.003815 339.665131,446.379333 339.664001,443.726807 
	C339.645386,399.407532 339.554138,355.087921 339.690613,310.769073 
	C339.754517,290.014954 348.725220,273.693939 366.306580,262.814606 
	C387.401672,249.761002 408.948273,237.437119 430.300354,224.798859 
	C447.496094,214.620728 464.738403,204.520325 481.878174,194.248779 
	C502.974518,181.606125 523.917236,181.722305 545.145813,194.080734 
	C582.127441,215.609924 619.259949,236.879730 656.298523,258.311371 
	C678.271423,271.025604 688.170959,290.473969 687.931824,315.514099 
	C687.755371,333.982910 687.211548,352.460297 687.577942,370.919006 
	C688.010742,392.721649 686.752319,414.514130 687.836914,436.319641 
	C689.162781,462.977600 677.818359,482.555115 654.604004,495.958649 
	C617.406982,517.435547 580.552856,539.506104 543.528076,561.281982 
	C540.955627,562.794983 538.170410,563.946228 535.107117,565.379395 
M433.690979,500.724518 
	C450.145203,510.526794 466.562439,520.391968 483.070404,530.102905 
	C490.506531,534.477173 497.452301,539.889343 506.079102,541.920654 
	C515.863770,544.224609 524.994080,542.893921 534.149841,536.608398 
	C528.867676,533.198914 524.542236,529.692627 519.647156,527.405579 
	C511.129181,523.425964 508.728546,516.887878 508.996460,508.065033 
	C509.405518,494.593994 509.050415,481.101440 509.163422,467.619232 
	C509.293243,452.132935 508.337158,436.631500 509.673645,421.162262 
	C510.333923,413.520172 514.430481,409.757904 521.999451,409.664551 
	C525.664917,409.619324 529.331299,409.650513 532.997314,409.656525 
	C543.565796,409.673920 547.344238,413.435486 547.351501,424.144989 
	C547.373596,456.805725 547.339600,489.466492 547.380554,522.127136 
	C547.382935,524.038574 546.758667,526.102600 548.214722,528.092712 
	C552.595886,527.243774 555.588562,523.725586 559.539307,522.150269 
	C562.831360,520.837646 563.740051,518.528870 563.712402,515.100403 
	C563.568848,497.271362 563.631958,479.440704 563.632385,461.610596 
	C563.633057,434.615540 563.614258,407.620392 563.662659,380.625427 
	C563.677490,372.375519 566.169128,369.973663 574.473145,369.893402 
	C579.638428,369.843445 584.804382,369.841827 589.970032,369.848816 
	C600.019836,369.862396 602.299316,372.104889 602.307983,382.213470 
	C602.338745,418.206940 602.324524,454.200409 602.364807,490.193848 
	C602.366760,491.956146 601.818665,493.815430 602.897644,495.605499 
	C603.395020,495.500427 603.920593,495.514893 604.306274,495.289703 
	C618.110596,487.230652 632.057800,479.400940 645.645630,470.990875 
	C656.445618,464.306244 661.899780,454.506439 661.834656,441.384674 
	C661.622192,398.560455 661.635132,355.733673 661.869385,312.909546 
	C661.944824,299.116913 655.908081,289.425781 644.305054,282.679810 
	C607.163086,261.085480 569.895142,239.702972 532.957703,217.764038 
	C519.097900,209.532043 506.318909,209.564484 492.736511,218.113403 
	C476.820007,228.131439 460.451477,237.431580 444.273834,247.034393 
	C422.511017,259.952484 400.624725,272.668304 379.032928,285.865967 
	C369.738525,291.546997 365.267029,300.368866 365.284180,311.474152 
	C365.350555,354.466187 365.444702,397.459259 365.202332,440.450104 
	C365.124634,454.234863 371.165894,464.016846 382.636902,470.814941 
	C399.394226,480.745880 416.249359,490.511749 433.690979,500.724518 
z"/>
<path fill="#00FF00" opacity="1.000000" stroke="none" 
	d="
M223.158600,621.634644 
	C229.472092,621.630676 235.320145,621.916443 241.126465,621.546570 
	C246.091522,621.230286 247.294754,623.240479 247.278000,627.897705 
	C247.126480,670.039307 247.174072,712.181580 247.166687,754.323669 
	C247.165192,762.818726 246.985428,771.320068 247.261719,779.806274 
	C247.408478,784.314270 245.614517,785.607971 241.372757,785.401611 
	C235.556473,785.118591 229.699020,785.050781 223.891724,785.412476 
	C219.177094,785.706177 217.545776,783.805176 217.865677,779.368286 
	C217.981567,777.760864 218.237854,776.037598 217.299942,774.527283 
	C216.356216,773.997070 215.681610,774.493958 215.065186,775.072998 
	C193.313812,795.504639 150.918777,792.347595 134.300980,758.347107 
	C122.495697,734.193237 122.957176,709.880005 137.955032,686.669739 
	C155.257202,659.893250 195.006424,656.841309 215.556824,677.562622 
	C215.982910,677.992249 216.578583,678.253662 217.216034,678.673157 
	C218.398056,676.415100 217.929504,674.231384 217.934189,672.146179 
	C217.967896,657.155090 217.969604,642.163452 217.873825,627.172729 
	C217.851913,623.743591 218.318985,621.099792 223.158600,621.634644 
M218.646439,720.818115 
	C218.307449,718.524597 218.097702,716.203125 217.608337,713.942139 
	C214.606888,700.074341 204.131638,690.465210 189.693253,689.596252 
	C177.927567,688.888062 165.626816,694.175476 159.836899,707.891785 
	C154.956757,719.452881 155.003204,731.128967 159.568054,742.794373 
	C164.285187,754.848877 173.694824,760.809448 186.072510,761.437744 
	C197.608841,762.023315 207.132629,757.238098 213.445129,747.202209 
	C218.344894,739.412537 219.123550,730.683594 218.646439,720.818115 
z"/>
<path fill="#00FF00" opacity="1.000000" stroke="none" 
	d="
M550.239075,782.015503 
	C526.288452,767.259644 518.551575,742.472656 521.119934,717.714294 
	C522.708435,702.401672 528.468994,688.992798 539.835938,677.974121 
	C557.874512,660.488159 588.528503,659.173645 607.722839,675.610840 
	C608.972229,676.680725 610.211426,677.762451 611.687012,679.039062 
	C613.077515,677.213135 612.610901,675.362915 612.616821,673.690735 
	C612.672119,658.036011 612.767395,642.379822 612.589478,626.726990 
	C612.544678,622.786255 613.837341,621.392090 617.745728,621.569092 
	C623.230469,621.817505 628.734680,621.628784 634.230530,621.644836 
	C641.173096,621.665100 641.199829,621.672729 641.209106,628.436707 
	C641.233643,646.256653 641.240417,664.076538 641.239990,681.896484 
	C641.239258,714.205566 641.144897,746.515015 641.310852,778.823181 
	C641.335999,783.706482 640.090576,785.823120 634.870789,785.424683 
	C629.406372,785.007507 623.865479,785.025330 618.396423,785.405090 
	C613.604431,785.737915 612.164001,783.763123 612.615967,779.356689 
	C612.846130,777.112915 612.656372,774.826111 612.656372,771.517944 
	C593.678406,789.276489 573.044312,791.633789 550.239075,782.015503 
M607.649719,703.912354 
	C599.810669,692.330017 588.844604,687.675720 575.299866,690.540649 
	C562.408936,693.267395 555.249451,702.173340 552.140930,714.670959 
	C550.504761,721.248962 550.806396,727.896851 551.398132,734.525269 
	C552.486755,746.720947 561.291504,757.264404 572.636719,760.254944 
	C585.869690,763.743164 599.156982,759.461548 606.095093,748.752014 
	C615.314270,734.521484 614.849670,719.610718 607.649719,703.912354 
z"/>
<path fill="#00FF00" opacity="1.000000" stroke="none" 
	d="
M690.226074,703.470276 
	C689.324524,705.337708 687.901428,705.215454 686.598633,705.221985 
	C679.767883,705.256226 672.936401,705.192078 666.106445,705.272766 
	C663.126160,705.307983 662.186768,704.400024 662.459534,701.128662 
	C664.009460,682.541260 674.593750,670.979248 695.125732,665.955750 
	C710.500977,662.193787 725.364136,663.745117 740.045227,669.606812 
	C754.561218,675.402649 761.080566,686.765137 763.302307,701.308472 
	C765.046143,712.723755 763.956787,724.251343 764.088989,735.726257 
	C764.257935,750.385864 763.997375,765.050354 764.163757,779.709961 
	C764.212891,784.042480 762.742004,785.655090 758.354065,785.407898 
	C752.707092,785.089783 747.016663,785.097412 741.368042,785.398560 
	C737.070740,785.627686 735.082581,784.262085 735.596985,779.783325 
	C735.762085,778.346069 735.752869,776.769226 734.474792,775.607483 
	C732.794006,775.771545 731.933533,777.126831 730.868774,778.117676 
	C714.690369,793.173706 679.074280,788.672424 666.810608,775.161377 
	C650.992065,757.733887 657.347473,728.632385 679.147583,719.716797 
	C686.930664,716.533752 695.090210,716.542236 703.149414,715.841553 
	C712.256287,715.049744 721.427063,714.808167 730.573242,714.737122 
	C734.566101,714.706055 735.741089,713.287109 735.712280,709.454956 
	C735.633545,698.976196 727.799622,689.694763 717.415771,688.363037 
	C714.950562,688.046875 712.423767,687.890015 709.947510,688.036133 
	C698.484497,688.712585 694.092468,692.141235 690.226074,703.470276 
M710.038696,765.540466 
	C711.341614,765.280029 712.633301,764.911438 713.949097,764.775635 
	C730.278442,763.089294 734.890503,751.069458 735.636780,738.477417 
	C735.781738,736.031494 735.266296,734.191589 732.215637,734.229492 
	C720.925110,734.369934 709.652039,734.900696 698.601624,737.336487 
	C692.194153,738.748901 688.635437,743.011658 688.309021,748.530640 
	C687.857483,756.163147 690.629028,761.059021 696.972839,763.763611 
	C700.872375,765.426086 704.962524,765.900696 710.038696,765.540466 
z"/>
<path fill="#00FF00" opacity="1.000000" stroke="none" 
	d="
M356.208313,778.332458 
	C338.389984,788.929565 319.784424,790.534607 300.622162,784.577759 
	C281.199829,778.540100 265.604736,757.363220 263.543304,736.583191 
	C262.254425,723.590576 262.734985,711.037354 267.830780,698.888794 
	C279.892914,670.131836 305.372559,660.052856 333.701080,664.991211 
	C361.223297,669.788940 378.102478,695.833313 378.325195,720.132751 
	C378.446686,733.389893 378.401459,733.395447 365.345612,733.397766 
	C342.850220,733.401733 320.354004,733.498962 297.860107,733.315247 
	C293.270233,733.277771 292.243195,734.418518 293.151459,739.053223 
	C295.784729,752.490234 302.423676,760.688965 315.172577,763.069763 
	C327.661499,765.402039 339.143829,763.008972 347.129272,751.893494 
	C348.566589,749.892822 350.155060,749.632263 352.194366,749.637817 
	C358.859589,749.655945 365.525299,749.604431 372.190094,749.661133 
	C377.612152,749.707275 378.423767,750.820679 376.085358,755.936218 
	C371.818512,765.270508 364.912140,772.390564 356.208313,778.332458 
M325.499817,714.624390 
	C332.909851,714.624390 340.319885,714.624390 347.994324,714.624390 
	C347.786713,705.839111 345.236755,698.670227 339.160034,693.512390 
	C323.218872,679.981567 297.967865,688.963318 293.618317,709.404297 
	C292.764648,713.416199 294.015961,714.795532 298.092468,714.700745 
	C306.890778,714.496094 315.696899,714.629639 325.499817,714.624390 
z"/>
<path fill="#00FF00" opacity="1.000000" stroke="none" 
	d="
M391.814514,718.375061 
	C393.198975,708.272034 395.925812,699.141357 400.978973,690.691956 
	C412.806061,670.915833 430.670868,662.789795 453.039642,663.769714 
	C478.450287,664.882996 497.774597,680.448547 504.659210,704.964905 
	C506.643250,712.030212 507.482635,719.293213 507.342682,726.663086 
	C507.215576,733.359436 507.280762,733.387573 500.762451,733.390747 
	C476.436493,733.402771 452.110565,733.391113 427.784607,733.398621 
	C420.980347,733.400696 421.012177,733.501465 422.217163,740.102966 
	C424.489136,752.549500 431.441528,760.814026 443.997162,763.086975 
	C456.315186,765.316956 467.596008,763.075195 475.657104,752.242432 
	C476.680634,750.867004 477.577026,749.633484 479.567017,749.647095 
	C488.033234,749.705078 496.500031,749.671692 505.073456,749.671692 
	C505.802429,752.484253 505.384338,754.624451 504.267120,756.751343 
	C494.661346,775.038025 479.157532,784.811401 459.041473,787.253784 
	C443.440887,789.147766 428.334320,787.134277 415.378601,777.351929 
	C402.276306,767.458923 394.954712,754.003357 392.632111,737.756409 
	C391.732483,731.463440 391.452393,725.170166 391.814514,718.375061 
M460.370422,688.955688 
	C456.528229,687.818909 452.631653,687.221802 448.598877,687.417175 
	C433.345184,688.156311 421.325928,700.401550 422.456238,714.136597 
	C440.573120,714.136597 458.686890,714.136597 477.104492,714.136597 
	C475.967133,702.660034 471.898590,693.784729 460.370422,688.955688 
z"/>
<path fill="#00FF00" opacity="1.000000" stroke="none" 
	d="
M891.030762,760.900146 
	C881.687805,774.384766 870.147949,783.812012 853.801758,786.949768 
	C801.951416,796.903076 775.542419,751.220093 780.391357,718.040100 
	C783.147888,699.178101 791.861023,684.175903 807.021301,673.008850 
	C818.615479,664.468750 832.435303,662.819397 846.085754,664.013733 
	C872.779724,666.349304 892.466125,683.387085 899.394897,709.400269 
	C904.211792,727.484680 901.004822,744.654419 891.030762,760.900146 
M848.350220,690.117981 
	C835.187866,687.136475 823.720581,691.543945 816.119385,702.506165 
	C806.497437,716.382446 806.753845,735.531494 816.766968,750.854309 
	C826.742676,766.119751 853.323547,766.629272 863.818726,751.656006 
	C872.897766,738.703125 874.014771,724.386597 869.344910,709.775696 
	C866.227539,700.022095 859.973999,692.548828 848.350220,690.117981 
z"/>
<path fill="#00FF00" opacity="1.000000" stroke="none" 
	d="
M449.248077,407.247894 
	C441.988556,414.382599 434.976776,421.264801 427.973114,428.155334 
	C421.486786,434.536987 415.116089,434.919342 409.147552,429.271973 
	C403.293121,423.732513 402.590851,414.989075 408.002075,409.022766 
	C412.918365,403.602173 418.274841,398.575409 423.518829,393.458618 
	C433.167999,384.043335 442.125427,373.891571 452.533508,365.289368 
	C461.584442,357.808868 467.120819,358.110992 475.877655,365.747375 
	C480.394501,369.686218 484.933838,373.602753 489.345306,377.657379 
	C491.239868,379.398773 492.696228,379.916016 494.796509,377.852112 
	C513.325256,359.644501 531.933350,341.517700 550.485840,323.334137 
	C551.526917,322.313721 552.284546,321.004120 553.244690,319.735901 
	C550.075684,315.311829 545.513428,312.656128 541.980469,308.937714 
	C539.509460,306.337067 537.730530,303.592010 539.070984,300.031433 
	C540.362671,296.600311 543.567932,296.024536 546.849182,295.654083 
	C563.334167,293.793091 579.821411,291.943115 596.283569,289.893677 
	C604.005493,288.932434 607.365356,291.486542 607.326416,299.181305 
	C607.270752,310.174622 604.869263,320.935028 603.872742,331.840576 
	C603.299438,338.115112 602.297241,344.353973 601.374268,350.592041 
	C600.409790,357.110840 594.469482,359.601593 589.397217,355.369598 
	C583.918701,350.798584 578.812378,345.781464 573.538086,340.953796 
	C571.006104,341.555542 569.560547,343.477692 567.953491,345.091492 
	C546.207947,366.928406 523.606812,387.870789 501.200073,409.016327 
	C493.686829,416.106689 488.630981,416.083984 480.954285,408.989380 
	C476.429138,404.807281 471.702942,400.821960 467.419220,396.406555 
	C464.418060,393.313141 462.358063,393.773743 459.711792,396.727753 
	C456.494720,400.319092 452.919586,403.589691 449.248077,407.247894 
z"/>
<path fill="#00FF00" opacity="1.000000" stroke="none" 
	d="
M487.932861,507.334167 
	C477.552765,501.303894 467.535065,495.394684 457.551422,489.428528 
	C454.944611,487.870728 453.628174,485.567871 453.641327,482.404266 
	C453.701416,467.938446 453.608826,453.471771 453.700867,439.006287 
	C453.734741,433.682495 456.327118,430.903931 461.608978,430.758972 
	C469.418060,430.544678 477.240326,430.565002 485.051117,430.742004 
	C490.652161,430.868896 493.292267,433.593170 493.310852,439.167938 
	C493.381866,460.451202 493.327026,481.734894 493.351715,503.018402 
	C493.355743,506.506104 492.306152,508.606903 487.932861,507.334167 
z"/>
</svg>
